<?xml version="1.0" encoding="UTF-8"?>
<svg id="Layer_1" data-name="Layer 1" xmlns="http://www.w3.org/2000/svg" version="1.1" xmlns:xlink="http://www.w3.org/1999/xlink" viewBox="0 0 248 215.56">
  <defs>
    <style>
      .cls-1 {
        fill: #0a8af2;
      }

      .cls-1, .cls-2, .cls-3, .cls-4, .cls-5 {
        stroke-width: 0px;
      }

      .cls-6 {
        filter: url(#drop-shadow-2);
      }

      .cls-2 {
        fill: #003968;
      }

      .cls-3 {
        fill: #742114;
      }

      .cls-4 {
        fill: #192226;
      }

      .cls-5 {
        fill: #fff;
        filter: url(#drop-shadow-1);
      }
    </style>
    <filter id="drop-shadow-1" filterUnits="userSpaceOnUse">
      <feOffset dx="0" dy="0"/>
      <feGaussianBlur result="blur" stdDeviation="9"/>
      <feFlood flood-color="#000" flood-opacity=".75"/>
      <feComposite in2="blur" operator="in"/>
      <feComposite in="SourceGraphic"/>
    </filter>
    <filter id="drop-shadow-2" filterUnits="userSpaceOnUse">
      <feOffset dx="7" dy="7"/>
      <feGaussianBlur result="blur-2" stdDeviation="9"/>
      <feFlood flood-color="#000" flood-opacity=".75"/>
      <feComposite in2="blur-2" operator="in"/>
      <feComposite in="SourceGraphic"/>
    </filter>
  </defs>
  <polygon class="cls-5" points="234.14 108.45 179.07 203.83 68.93 203.83 13.86 108.45 68.93 13.06 179.07 13.06 234.14 108.45"/>
  <g class="cls-6">
    <g>
      <path class="cls-3" d="M176.79,134.7c.07.2.13.4.16.61-.02-.21-.08-.41-.16-.61ZM176.65,134.41l-15.27-26.43,15.26,26.43c.06.09.1.19.15.29-.03-.1-.08-.19-.14-.29Z"/>
      <path class="cls-4" d="M176.95,135.32c-.03-.21-.09-.41-.16-.61h0c-.05-.11-.09-.21-.15-.3l-15.26-26.43-8.82-15.27c-.11-.19-.24-.36-.4-.51-.15-.15-.32-.28-.5-.39-.37-.21-.79-.33-1.24-.33h-47.41V24.38c0-1.11-.75-2.09-1.83-2.38-1.07-.29-2.22.18-2.77,1.15l-22.34,38.71c-.22.38-.33.8-.33,1.24v72.37c-.04.49.07.98.32,1.42l24.08,41.7c.45.76,1.25,1.23,2.14,1.23h48.15c.88,0,1.7-.47,2.14-1.23l24.08-41.7s.02-.03.02-.05c.08-.15.14-.3.19-.45.05-.16.08-.32.1-.48.02-.19.02-.39,0-.58ZM80.68,63.74l17.41-30.16v62.68l-17.41,30.16v-62.68ZM102.69,98.17l1.01-1.76h45.3l18.34,31.77-26.77-16.97s-.06-.03-.09-.05h0c-.09-.06-.18-.1-.28-.14-.08-.04-.17-.07-.26-.09-.07-.02-.16-.04-.23-.05-.15-.03-.31-.05-.45-.05h-25.81c-.55,0-1.08.18-1.5.5-.08.07-.17.14-.24.21-.16.16-.29.32-.4.51l-12.9,22.34c-.45.77-.45,1.71,0,2.47l7.88,13.67-24.78-15.71,21.16-36.66ZM149.31,135.65l-11.47,19.88h-22.96l-11.47-19.88,11.47-19.88h22.96l11.47,19.88ZM149.01,174.88h-45.3l-18.35-31.79,26.78,16.98c.4.26.87.38,1.32.38h25.81c.87,0,1.69-.47,2.13-1.23l12.91-22.35c.44-.76.44-1.7,0-2.47l-7.89-13.67,24.78,15.72-22.18,38.42Z"/>
      <path class="cls-1" d="M171.19,136.46l-22.18,38.42h-45.3l-18.35-31.79,26.78,16.98c.4.26.87.38,1.32.38h25.81c.87,0,1.69-.47,2.13-1.23l12.91-22.35c.44-.76.44-1.7,0-2.47l-7.89-13.67,24.78,15.72Z"/>
      <path class="cls-2" d="M167.35,128.18l-26.77-16.97s-.06-.03-.09-.05h0c-.09-.06-.18-.1-.28-.14-.08-.04-.17-.07-.26-.09-.07-.02-.16-.04-.23-.05-.15-.03-.31-.05-.45-.05h-25.81c-.55,0-1.08.18-1.5.5-.08.07-.17.14-.24.21-.16.16-.29.32-.4.51l-12.9,22.34c-.45.77-.45,1.71,0,2.47l7.88,13.67-24.78-15.71,21.16-36.66,1.01-1.76h45.3l18.34,31.77Z"/>
      <polygon class="cls-1" points="98.09 33.58 98.09 96.26 80.68 126.42 80.68 63.74 98.09 33.58"/>
    </g>
  </g>
</svg>