<svg id="epXY9ag0xIU1" xmlns="http://www.w3.org/2000/svg" xmlns:xlink="http://www.w3.org/1999/xlink" viewBox="0 0 248 215.56" shape-rendering="geometricPrecision" text-rendering="geometricPrecision">
<style><![CDATA[
#epXY9ag0xIU2_tr {animation: epXY9ag0xIU2_tr__tr 3000ms linear infinite normal forwards}@keyframes epXY9ag0xIU2_tr__tr { 0% {transform: translate(123.999999px,108.445003px) rotate(0deg)} 100% {transform: translate(123.999999px,108.445003px) rotate(119.765346deg)}}
]]></style>
<defs><filter id="epXY9ag0xIU2-filter" x="-150%" width="400%" y="-150%" height="400%"><feGaussianBlur id="epXY9ag0xIU2-filter-drop-shadow-0-blur" in="SourceAlpha" stdDeviation="9,9"/><feOffset id="epXY9ag0xIU2-filter-drop-shadow-0-offset" dx="0" dy="0" result="tmp"/><feFlood id="epXY9ag0xIU2-filter-drop-shadow-0-flood" flood-color="rgba(0,0,0,0.75)"/><feComposite id="epXY9ag0xIU2-filter-drop-shadow-0-composite" operator="in" in2="tmp"/><feMerge id="epXY9ag0xIU2-filter-drop-shadow-0-merge" result="result"><feMergeNode id="epXY9ag0xIU2-filter-drop-shadow-0-merge-node-1"/><feMergeNode id="epXY9ag0xIU2-filter-drop-shadow-0-merge-node-2" in="SourceGraphic"/></feMerge></filter><filter id="epXY9ag0xIU3-filter" x="-150%" width="400%" y="-150%" height="400%"><feGaussianBlur id="epXY9ag0xIU3-filter-drop-shadow-0-blur" in="SourceAlpha" stdDeviation="9,9"/><feOffset id="epXY9ag0xIU3-filter-drop-shadow-0-offset" dx="7" dy="7" result="tmp"/><feFlood id="epXY9ag0xIU3-filter-drop-shadow-0-flood" flood-color="rgba(0,0,0,0.75)"/><feComposite id="epXY9ag0xIU3-filter-drop-shadow-0-composite" operator="in" in2="tmp"/><feMerge id="epXY9ag0xIU3-filter-drop-shadow-0-merge" result="result"><feMergeNode id="epXY9ag0xIU3-filter-drop-shadow-0-merge-node-1"/><feMergeNode id="epXY9ag0xIU3-filter-drop-shadow-0-merge-node-2" in="SourceGraphic"/></feMerge></filter></defs><g id="epXY9ag0xIU2_tr" transform="translate(123.999999,108.445003) rotate(0)"><polygon points="234.14,108.45 179.07,203.83 68.93,203.83 13.86,108.45 68.93,13.06 179.07,13.06 234.14,108.45" transform="translate(-123.999999,-108.445003)" filter="url(#epXY9ag0xIU2-filter)" fill="#fff" stroke-width="0"/></g><g filter="url(#epXY9ag0xIU3-filter)"><g><path d="M176.79,134.7c.07.2.13.4.16.61-.02-.21-.08-.41-.16-.61Zm-.14-.29l-15.27-26.43l15.26,26.43c.06.09.1.19.15.29-.03-.1-.08-.19-.14-.29Z" fill="#742114" stroke-width="0"/><path d="M176.95,135.32c-.03-.21-.09-.41-.16-.61v0c-.05-.11-.09-.21-.15-.3l-15.26-26.43-8.82-15.27c-.11-.19-.24-.36-.4-.51-.15-.15-.32-.28-.5-.39-.37-.21-.79-.33-1.24-.33h-47.41v-67.1c0-1.11-.75-2.09-1.83-2.38-1.07-.29-2.22.18-2.77,1.15L76.07,61.86c-.22.38-.33.8-.33,1.24v72.37c-.04.49.07.98.32,1.42l24.08,41.7c.45.76,1.25,1.23,2.14,1.23h48.15c.88,0,1.7-.47,2.14-1.23l24.08-41.7c0,0,.02-.03.02-.05.08-.15.14-.3.19-.45.05-.16.08-.32.1-.48.02-.19.02-.39,0-.58l-.01-.01ZM80.68,63.74L98.09,33.58v62.68L80.68,126.42v-62.68Zm22.01,34.43l1.01-1.76h45.3l18.34,31.77-26.77-16.97c0,0-.06-.03-.09-.05v0c-.09-.06-.18-.1-.28-.14-.08-.04-.17-.07-.26-.09-.07-.02-.16-.04-.23-.05-.15-.03-.31-.05-.45-.05h-25.81c-.55,0-1.08.18-1.5.5-.08.07-.17.14-.24.21-.16.16-.29.32-.4.51l-12.9,22.34c-.45.77-.45,1.71,0,2.47l7.88,13.67-24.78-15.71l21.16-36.66.02.01Zm46.62,37.48l-11.47,19.88h-22.96l-11.47-19.88l11.47-19.88h22.96l11.47,19.88Zm-.3,39.23h-45.3L85.36,143.09l26.78,16.98c.4.26.87.38,1.32.38h25.81c.87,0,1.69-.47,2.13-1.23l12.91-22.35c.44-.76.44-1.7,0-2.47l-7.89-13.67l24.78,15.72-22.18,38.42-.01.01Z" fill="#192226" stroke-width="0"/><path d="M171.19,136.46l-22.18,38.42h-45.3L85.36,143.09l26.78,16.98c.4.26.87.38,1.32.38h25.81c.87,0,1.69-.47,2.13-1.23l12.91-22.35c.44-.76.44-1.7,0-2.47l-7.89-13.67l24.78,15.72-.01.01Z" fill="#0a8af2" stroke-width="0"/><path d="M167.35,128.18l-26.77-16.97c0,0-.06-.03-.09-.05v0c-.09-.06-.18-.1-.28-.14-.08-.04-.17-.07-.26-.09-.07-.02-.16-.04-.23-.05-.15-.03-.31-.05-.45-.05h-25.81c-.55,0-1.08.18-1.5.5-.08.07-.17.14-.24.21-.16.16-.29.32-.4.51l-12.9,22.34c-.45.77-.45,1.71,0,2.47l7.88,13.67-24.78-15.71l21.16-36.66l1.01-1.76h45.3l18.34,31.77.02.01Z" fill="#003968" stroke-width="0"/><polygon points="98.09,33.58 98.09,96.26 80.68,126.42 80.68,63.74 98.09,33.58" fill="#0a8af2" stroke-width="0"/></g></g></svg>
